# xmcd
#
# Track frame offsets:
#	150
#	16635
#	32170
#	47910
#	66895
#	86698
#	105363
#	117915
#	139168
#	154190
#
# Disc length: 2296 seconds
#
# Revision: 1
# Processed by: cddbd v1.5.2PL0 Copyright (c) Steve Scherf et al.
# Submitted via: audiograbber 1.83.01
#
DISCID=7b08f60a
DTITLE=Chris Daniels And The Kings - CHRIS DANIELS AND THE KINGS - When You're 
DTITLE=Cool
DYEAR=1987
DGENRE=Blues
TTITLE0=Tell Me The Truth
TTITLE1=One And Only
TTITLE2=Roadhouse Music
TTITLE3=Take Time For Love
TTITLE4=When You're Cool (The Sun Shines All The Time)
TTITLE5=Gloria (Come Back To The Record Store)
TTITLE6=Faded Satin Lady
TTITLE7=Testify
TTITLE8=Oh Darlin'
TTITLE9=Mama Told Me Not To Come
EXTD=
EXTT0=
EXTT1=
EXTT2=
EXTT3=
EXTT4=
EXTT5=
EXTT6=
EXTT7=
EXTT8=
EXTT9=
PLAYORDER=
